<svg id="Layer_1" data-name="Layer 1" xmlns="http://www.w3.org/2000/svg" viewBox="0 0 100 100"><defs><style>.cls-1{fill:none;}.cls-2{fill:#333;}</style></defs><title>bootstrap</title><path class="cls-1" d="M71.08,76.62q6.12-4.4,6.12-13.36a16.65,16.65,0,0,0-2.85-9.87,14.36,14.36,0,0,0-8-5.52h0a12.62,12.62,0,0,0,6.2-4.69,13.55,13.55,0,0,0,2.14-7.72q0-8.59-5.87-12.49t-18.87-3.9H25.68V81H52.47Q65,81,71.08,76.62ZM41.82,29.94h8.93a8.63,8.63,0,0,1,5.79,1.7,6,6,0,0,1,2,4.85,6,6,0,0,1-2,4.9,8.78,8.78,0,0,1-5.79,1.66H41.82Zm0,40.2V53.92H51.3q4.9,0,7.34,2t2.43,6q0,4.11-2.47,6.14t-7.29,2Z"/><path class="cls-2" d="M56.54,41.39a6,6,0,0,0,2-4.9,6,6,0,0,0-2-4.85,8.63,8.63,0,0,0-5.79-1.7H41.82V43.05h8.93A8.78,8.78,0,0,0,56.54,41.39Z"/><path class="cls-2" d="M61.07,62q0-4-2.43-6t-7.34-2H41.82V70.14H51.3q4.86,0,7.29-2T61.07,62Z"/><path class="cls-2" d="M.21,16.09V83.91A16.09,16.09,0,0,0,16.29,100H83.71A16.09,16.09,0,0,0,99.79,83.91V16.09A16.09,16.09,0,0,0,83.71,0H16.29A16.09,16.09,0,0,0,.21,16.09Zm25.48,3H49.91q13,0,18.87,3.9t5.87,12.49a13.55,13.55,0,0,1-2.14,7.72,12.62,12.62,0,0,1-6.2,4.69h0a14.36,14.36,0,0,1,8,5.52,16.65,16.65,0,0,1,2.85,9.87q0,9-6.12,13.36T52.47,81H25.68Z"/></svg>