<svg id="Layer_1" data-name="Layer 1" xmlns="http://www.w3.org/2000/svg" viewBox="0 0 100 100"><defs><style>.cls-1{fill:none;}.cls-2{fill:#333;}</style></defs><title>css3</title><polygon class="cls-1" points="51.7 28.41 50.25 29.02 25.22 39.44 26.03 49.78 26.07 49.75 26.07 49.78 63.19 49.89 62.37 63.64 50.16 67.08 38.41 64.11 37.7 55.56 26.79 55.56 28.21 72.05 50.27 78.57 72.19 72.17 75.05 39.44 50.16 39.44 50.22 39.42 75.96 28.41 77.03 17.86 22.97 17.86 24.26 28.41 51.7 28.41"/><path class="cls-2" d="M50,100,85.07,88.35,92.86,0H7.14l7.79,88.35ZM77,17.86,76,28.42l-25.74,11-.07,0H75L72.19,72.17,50.27,78.57,28.21,72.05l-1.43-16.5H37.7l.71,8.55,11.74,3,12.21-3.44.83-13.75-37.12-.11v0l0,0-.8-10.33L50.25,29l1.45-.6H24.26L23,17.86Z"/></svg>