<svg id="Layer_1" data-name="Layer 1" xmlns="http://www.w3.org/2000/svg" viewBox="0 0 100 100"><defs><style>.cls-1{fill:#333;}</style></defs><title>docker</title><rect class="cls-1" x="56.57" y="37.62" width="10.33" height="9.28"/><rect class="cls-1" x="44.35" y="26.35" width="10.33" height="9.39"/><rect class="cls-1" x="44.35" y="37.63" width="10.33" height="9.28"/><rect class="cls-1" x="19.94" y="26.35" width="10.33" height="9.39"/><rect class="cls-1" x="32.15" y="37.62" width="10.33" height="9.28"/><path class="cls-1" d="M86.5,40.66c-.52-3.75-2.61-7-6.42-10l-2.19-1.45-1.45,2.19c-2.87,4.34-3.66,11.5-.58,16.22a15.72,15.72,0,0,1-7.56,1.67H.38A32.8,32.8,0,0,0,7.26,74.66C13.05,81.52,21.74,85,33.1,85c24.59,0,42.79-11.33,51.31-31.9,3.34.06,10.56,0,14.26-7.06.23-.39,1-2.06,1.33-2.67L97.92,42C95.67,40.46,90.49,39.91,86.5,40.66Z"/><polygon class="cls-1" points="7.76 46.9 18.08 46.9 18.08 37.62 18.07 37.62 7.76 37.62 7.76 46.9"/><rect class="cls-1" x="32.15" y="26.35" width="10.33" height="9.39"/><rect class="cls-1" x="44.35" y="14.99" width="10.33" height="9.48"/><rect class="cls-1" x="19.94" y="37.62" width="10.33" height="9.28"/></svg>