<svg id="Layer_1" data-name="Layer 1" xmlns="http://www.w3.org/2000/svg" viewBox="0 0 100 100"><defs><style>.cls-1{fill:#333;}</style></defs><title>github</title><path class="cls-1" d="M27.18,78.85c-.14.4.26.87.87,1a1,1,0,0,0,1.25-.4c.12-.4-.26-.87-.87-1A1,1,0,0,0,27.18,78.85Z"/><path class="cls-1" d="M31.27,79.76c0,.46.46.79,1.13.73s1-.32,1-.73S32.92,79,32.32,79,31.27,79.35,31.27,79.76Z"/><path class="cls-1" d="M35.16,79.5c.06.4.58.67,1.19.52s1-.52.93-.93-.6-.65-1.19-.58S35.1,79,35.16,79.5Z"/><path class="cls-1" d="M24,76.33c-.32.26-.2.87.26,1.25s1,.52,1.31.2.14-.87-.26-1.25S24.21,76,24,76.33Z"/><path class="cls-1" d="M19.6,70.79c-.26.2-.2.67.14,1s.79.46,1,.2.2-.67-.14-1S19.86,70.52,19.6,70.79Z"/><path class="cls-1" d="M49.35,1.25C21.39,1.25,0,22.48,0,50.44A50.55,50.55,0,0,0,34.17,98.67c2.58.46,3.49-1.13,3.49-2.44s-.06-8.15-.06-12.38c0,0-14.11,3-17.08-6,0,0-2.3-5.87-5.6-7.38,0,0-4.62-3.17.32-3.1A10.64,10.64,0,0,1,23,72.56c4.42,7.78,11.81,5.54,14.7,4.21A11.21,11.21,0,0,1,40.95,70C29.68,68.73,18.31,67.1,18.31,47.7c0-5.54,1.53-8.33,4.76-11.87a19,19,0,0,1,.52-13.69c4.21-1.31,13.91,5.44,13.91,5.44a47.63,47.63,0,0,1,25.32,0s9.7-6.77,13.91-5.44c2.76,7,1,12.38.52,13.69,3.23,3.57,5.2,6.35,5.2,11.88,0,19.46-11.87,21-23.15,22.28,1.85,1.59,3.43,4.62,3.43,9.35,0,6.79-.06,15.2-.06,16.85,0,1.31.93,2.9,3.49,2.44C86.33,91.93,100,72.8,100,50.44,100,22.48,77.32,1.25,49.35,1.25Z"/><path class="cls-1" d="M21.65,73.37h0c-.32.2-.32.73,0,1.19s.87.67,1.13.46a.92.92,0,0,0,0-1.25C22.5,73.31,22,73.1,21.65,73.37Z"/><path class="cls-1" d="M17.42,69.15c-.14.26.06.58.46.79a.6.6,0,0,0,.87-.14c.14-.26-.06-.58-.46-.79S17.56,69,17.42,69.15Z"/></svg>