<svg id="Layer_1" data-name="Layer 1" xmlns="http://www.w3.org/2000/svg" viewBox="0 0 100 100"><defs><style>.cls-1{fill:none;}.cls-2{fill:#333;}</style></defs><title>gitlab</title><polygon class="cls-1" points="5.82 39.01 50 96.43 31.59 39.01 5.82 39.01"/><polygon class="cls-1" points="68.41 39.01 50 96.43 94.18 39.01 68.41 39.01"/><path class="cls-2" d="M83.14,4.87a2,2,0,0,0-3.68,0L68.41,39H94.18Z"/><polygon class="cls-2" points="31.59 39.01 50 96.43 68.41 39.01 31.59 39.01"/><path class="cls-2" d="M99.82,56.19,94.18,39,50,96.43,98.42,60.49A3.9,3.9,0,0,0,99.82,56.19Z"/><path class="cls-2" d="M20.54,4.87a2,2,0,0,0-3.68,0L5.82,39H31.59Z"/><path class="cls-2" d="M.18,56.19a3.9,3.9,0,0,0,1.39,4.3L50,96.43,5.82,39Z"/></svg>