<svg id="Layer_1" data-name="Layer 1" xmlns="http://www.w3.org/2000/svg" viewBox="0 0 100 100"><defs><style>.cls-1{fill:none;}.cls-2{fill:#333;}</style></defs><title>html5</title><polygon class="cls-1" points="25.96 50.4 63.21 50.4 61.88 64.29 49.89 67.52 37.95 64.29 37.16 55.78 26.52 55.78 27.86 72.7 49.89 78.8 50.13 78.8 50.13 78.73 71.99 72.7 75.02 39.58 35.83 39.58 34.91 28.55 75.94 28.55 76.92 17.9 23.1 17.9 25.96 50.4"/><path class="cls-2" d="M7.14,0l7.79,88.35,35,11.65L85.07,88.35,92.86,0ZM75.94,28.55h-41l.92,11H75L72,72.7l-21.85,6v.07h-.25l-22-6.09L26.52,55.78H37.17l.78,8.5,11.94,3.24,12-3.24L63.21,50.4H26L23.1,17.9H76.92Z"/></svg>