<svg id="Layer_1" data-name="Layer 1" xmlns="http://www.w3.org/2000/svg" viewBox="0 0 100 100"><defs><style>.cls-1{fill:#333;}</style></defs><title>laravel</title><path class="cls-1" d="M99.61,47.74C99,47,89.8,35.54,88.19,33.6s-2.4-1.6-3.39-1.45-12.58,2.09-13.92,2.31-2.19.77-1.36,1.92,8.34,11.83,10,14.2L49.29,57.84,25.2,17.61c-1-1.42-1.16-1.92-3.34-1.81S3,17.28,1.78,17.39-.72,18,.47,20.82,20.62,64.51,21.15,65.69A4.06,4.06,0,0,0,26.28,68c3.3-.8,14.73-3.78,21-5.42,3.3,6,10,18.11,11.28,19.84,1.66,2.33,2.81,1.94,5.36,1.16C65.9,83,95.08,72.51,96.39,72s2.12-.92,1.23-2.25c-.62-1-8.35-11.3-12.38-16.75,2.76-.69,12.59-3.3,13.64-3.6C100.11,49.09,100.29,48.49,99.61,47.74ZM44.59,59c-.36.08-17.31,4.14-18.22,4.34s-.91.11-1-.2S5.2,21.47,4.92,21s-.27-.92,0-.92,16-1.41,16.56-1.44.5.09.7.44c0,0,22.22,38.34,22.59,39S45,58.91,44.59,59ZM92.4,68c.27.42.55.7-.31,1s-28.7,9.7-29.23,9.94-1,.31-1.66-.7-9.75-16.69-9.75-16.69L81,53.88c.73-.23,1-.39,1.44.34s9.74,13.32,10,13.78Zm1.89-21c-.66.14-11.5,2.83-11.5,2.83L73.93,37.68c-.25-.36-.45-.7.17-.78s10.69-1.91,11.14-2a1.11,1.11,0,0,1,1.41.53c.57.76,8.22,10.47,8.51,10.84S94.94,46.85,94.29,47Z"/></svg>