<svg id="Layer_1" data-name="Layer 1" xmlns="http://www.w3.org/2000/svg" viewBox="0 0 100 100"><defs><style>.cls-1{fill:none;}.cls-2{fill:#333;}</style></defs><title>linux</title><path class="cls-1" d="M83.94,71.65c-1.35-1.17-2.66-1.05-4.41-1-1.5,1.72-5,3.83-7.5,3.18-2.25-.57-3.52-3.18-3.67-5.76l-.2.1c-1.39.76-2.17,2.11-2.68,4.12a44,44,0,0,0-.82,7.56c-.14,2.3-1.21,5.16-1.93,7.93-.68,2.58-1.13,4.92-.21,7.09a6.39,6.39,0,0,0,6.58,3.77c2.77-.21,5.94-1.91,8.51-5,4.3-5.19,12.17-5.8,12.34-9.08.06-1-.61-2.54-2.68-4.8S85.88,73.31,83.94,71.65Z"/><path class="cls-1" d="M62,85.42a30.58,30.58,0,0,0,1.33-5.66A43.11,43.11,0,0,1,64.2,72c.61-2.46,1.82-4.51,4.18-5.33.45-4.12,3.65-4.12,7.48-2.44s5.08,3.12,4.45,5.1c.2,0,.39,0,.82,0,1-3.3-2.79-5.47-6-6.8a14.75,14.75,0,0,0-.08-7A24.1,24.1,0,0,0,68.18,44c-.45,0-.41.37.51,1.27,2.27,2.09,7.25,9.61,4.55,16.58a7.77,7.77,0,0,0-2.13-.27A44,44,0,0,0,66.5,49a100.87,100.87,0,0,1-7.27-18.69,8.34,8.34,0,0,1-4.36,2.93A21.54,21.54,0,0,0,51.78,35c-2.71,1.56-5.86,1.72-8.28-.23a22.7,22.7,0,0,0-2.46-2c-.31-.18-1-.64-1.21-.8-.39,7.38-5.33,16.66-7.68,22a33.73,33.73,0,0,0-2.7,12C25.2,60.25,28.3,53,30,49.84c1.86-3.44,2.15-4.39,1.7-4.06-1.68,2.73-4.3,7.09-5.31,11.56a13.22,13.22,0,0,0,.06,6.87,10.56,10.56,0,0,0,4.8,5.84s4.84,2.79,7.48,6.35c1.45,2,1.89,3.65,1.45,4.86S38.26,83,36.88,83a41.93,41.93,0,0,1,2.81,3.83c7.34,5,16.05,3.07,22.32-1.41Z"/><path class="cls-1" d="M28.13,71.48c-1.33-1.8-2.7-2.89-4.28-3.12a3.53,3.53,0,0,0-3.46,1.35c-.94,1-1.72,2.4-2.79,3.52-1.52,1.27-1.82,1.21-3.83,1.93a4.47,4.47,0,0,0-2.89,2.21,6.58,6.58,0,0,0-.18,3.91,10.49,10.49,0,0,1,.12,4.67v0c-1,2.68-1,4.24-.51,5.16,1.54,3,9.1,1.19,14.94,4.28,6.13,3.2,14.18,3.34,14.71-3.52.41-4-6.15-9.57-8-13.46Z"/><path class="cls-1" d="M41.37,32c1.52.9,2.34,2.25,3.91,2.93a5.44,5.44,0,0,0,1.87.41c3.59.21,5.29-2.21,7.46-2.91A6.79,6.79,0,0,0,59,28.94c.62-1.66-.41-2.87-2.05-3.55-2.21-1-3.18-1-4.41-1.82a9.4,9.4,0,0,0-5.06-1.74c-2.81,0-4.53,1.91-5.45,2.77-.1.1-1.54,1.15-2.75,2.05a2.1,2.1,0,0,0-.82,2.4A5.68,5.68,0,0,0,41.37,32Zm7.44-8.51a1.29,1.29,0,0,1,1.07,0c.25.12.66.29.62.57s-.35.29-.57.29-.39-.23-.59-.33-.61-.08-.66-.33C48.65,23.67,48.73,23.57,48.81,23.53Zm-3.65,0a1.29,1.29,0,0,1,1.07,0c.08,0,.16.14.12.21-.08.23-.47.2-.68.31s-.35.33-.59.33-.53-.08-.55-.27S44.9,23.69,45.16,23.57Zm-5.41,4.2c.47.06.55.68.84,1s.9.86,1.5,1.35A7.83,7.83,0,0,0,47,32a13.31,13.31,0,0,0,5.84-2c.82-.47,1.86-1.29,2.71-1.91.66-.49.63-1.05,1.17-1s.16.62-.61,1.29a17.37,17.37,0,0,1-2.89,2c-1.82,1-3.95,2.11-6.21,2.11a8.64,8.64,0,0,1-5.33-2.07c-.64-.51-1.17-1-1.56-1.39h0C39.4,28.49,39.47,27.75,39.75,27.77Z"/><path class="cls-1" d="M41.49,23.9c-1.56-1.35-1.29-5.35.35-5.49,1.23-.1,2.11,2.09,1.87,3.83a7,7,0,0,1,2-.9C46,17.58,43.95,14.8,42,14.8c-3.69,0-4.69,7.32-1.64,10.17C41.86,23.87,41.68,24.06,41.49,23.9Z"/><path class="cls-1" d="M51.89,22.17c-.41-2.38.88-4.59,2.3-4.49,1.74.06,2.71,3,1.78,5.33a3.49,3.49,0,0,1-.76.9,24.16,24.16,0,0,1,2.46,1A7.77,7.77,0,0,0,58.52,17c-1.91-4.18-6.68-4.26-8.59.08a7.78,7.78,0,0,0-.57,4.26A13.91,13.91,0,0,1,51.89,22.17Z"/><path class="cls-2" d="M49.36,24.08c.2.1.35.33.59.33s.55-.08.57-.29-.37-.45-.62-.57a1.29,1.29,0,0,0-1.07,0c-.08,0-.16.14-.12.21C48.75,24,49.14,24,49.36,24.08Z"/><path class="cls-2" d="M45.08,24.41c.23,0,.39-.23.59-.33s.61-.08.68-.31c0-.08,0-.18-.12-.21a1.29,1.29,0,0,0-1.07,0c-.25.12-.66.29-.62.57S44.88,24.43,45.08,24.41Z"/><path class="cls-2" d="M40.08,29h0c.39.37.92.88,1.56,1.39A8.64,8.64,0,0,0,47,32.5c2.27,0,4.39-1.15,6.21-2.11a17.37,17.37,0,0,0,2.89-2c.76-.66,1.15-1.23.61-1.29s-.51.51-1.17,1c-.86.62-1.89,1.45-2.71,1.91A13.31,13.31,0,0,1,47,32a7.83,7.83,0,0,1-4.86-1.89c-.61-.49-1.11-1-1.5-1.35s-.37-.9-.84-1C39.47,27.75,39.4,28.49,40.08,29Z"/><path class="cls-2" d="M86.85,75c-.35-1.58-.76-3.28-2.05-4.37a5.28,5.28,0,0,0-.78-.57,4.34,4.34,0,0,0-.8-.39C85,64.35,84.31,59,82.5,54.23c-2.23-5.88-6.11-11-9.08-14.53-3.34-4.2-6.58-8.18-6.52-14.06.1-9,1-25.62-14.8-25.64-20,0-15,20.19-15.21,26.4A22.65,22.65,0,0,1,32.48,39c-3.69,4.39-8.89,11.48-11.35,18.89a22.45,22.45,0,0,0-1.21,10.41c-1.27,1.13-2.23,2.87-3.24,3.94a8.38,8.38,0,0,1-3.32,1.62,6,6,0,0,0-3.61,2.83,5,5,0,0,0-.55,2.42,15.36,15.36,0,0,0,.23,2.3,10.11,10.11,0,0,1,.16,4.06c-1,2.81-1.15,4.77-.43,6.19s2.23,2.05,3.93,2.4c3.38.7,8,.53,11.58,2.44L25,96l-.31.59c3.87,2,7.79,2.75,10.92,2a7.08,7.08,0,0,0,5.06-3.94c2.44,0,5.14-1.05,9.43-1.29,2.91-.23,6.56,1,10.76.8a6.2,6.2,0,0,0,.49,1.31v0A7.83,7.83,0,0,0,69.2,100c3.24-.25,6.66-2.15,9.43-5.45l-.51-.43.51.43c2.66-3.2,7-4.53,9.94-6.29,1.45-.88,2.62-2,2.71-3.57s-.86-3.38-3-5.8A9.52,9.52,0,0,1,86.85,75ZM49.92,17c1.91-4.34,6.68-4.26,8.59-.08a7.77,7.77,0,0,1-.84,7.89,24.16,24.16,0,0,0-2.46-1A3.49,3.49,0,0,0,56,23c.94-2.3,0-5.27-1.78-5.33-1.43-.1-2.71,2.11-2.3,4.49a13.91,13.91,0,0,0-2.54-.86A7.78,7.78,0,0,1,49.92,17ZM42,14.8c2,0,4.06,2.77,3.73,6.54a7,7,0,0,0-2,.9c.23-1.74-.64-3.93-1.87-3.83-1.64.14-1.91,4.14-.35,5.49.2.16.37,0-1.15,1.07C37.29,22.13,38.28,14.8,42,14.8ZM39.32,26.66c1.21-.9,2.66-2,2.75-2.05.92-.86,2.64-2.77,5.45-2.77a9.4,9.4,0,0,1,5.06,1.74c1.23.8,2.21.86,4.41,1.82,1.64.68,2.68,1.89,2.05,3.55a6.79,6.79,0,0,1-4.43,3.53c-2.17.7-3.87,3.12-7.46,2.91A5.44,5.44,0,0,1,45.27,35c-1.56-.68-2.38-2-3.91-2.93a5.68,5.68,0,0,1-2.87-3A2.1,2.1,0,0,1,39.32,26.66ZM25.26,95.4c-5.84-3.09-13.4-1.27-14.94-4.28-.47-.92-.47-2.48.51-5.16v0a10.49,10.49,0,0,0-.12-4.67,6.58,6.58,0,0,1,.18-3.91,4.47,4.47,0,0,1,2.89-2.21c2-.72,2.3-.66,3.83-1.93,1.07-1.11,1.86-2.52,2.79-3.52a3.53,3.53,0,0,1,3.46-1.35c1.58.23,2.95,1.33,4.28,3.12l3.83,7c1.86,3.89,8.42,9.45,8,13.46C39.43,98.74,31.39,98.61,25.26,95.4Zm14.43-8.57A41.93,41.93,0,0,0,36.88,83c1.39,0,2.77-.43,3.26-1.74s0-2.91-1.45-4.86c-2.64-3.55-7.48-6.35-7.48-6.35a10.56,10.56,0,0,1-4.8-5.84,13.22,13.22,0,0,1-.06-6.87c1-4.47,3.63-8.83,5.31-11.56.45-.33.16.63-1.7,4.06C28.3,53,25.2,60.25,29.46,65.93a33.73,33.73,0,0,1,2.7-12c2.34-5.35,7.28-14.63,7.68-22,.21.16.9.63,1.21.8a22.7,22.7,0,0,1,2.46,2c2.42,2,5.57,1.8,8.28.23a21.54,21.54,0,0,1,3.11-1.76,8.34,8.34,0,0,0,4.36-2.93A100.87,100.87,0,0,0,66.5,49a44,44,0,0,1,4.61,12.62,7.77,7.77,0,0,1,2.13.27c2.7-7-2.28-14.49-4.55-16.58-.92-.9-1-1.29-.51-1.27a24.1,24.1,0,0,1,6.87,11.52,14.75,14.75,0,0,1,.08,7c3.2,1.33,7,3.5,6,6.8-.43,0-.62,0-.82,0,.63-2-.76-3.44-4.45-5.1s-7-1.68-7.48,2.44C66,67.46,64.8,69.51,64.2,72a43.11,43.11,0,0,0-.86,7.79A30.58,30.58,0,0,1,62,85.42h0C55.74,89.89,47,91.85,39.69,86.83Zm37.93,6.84c-2.58,3.07-5.74,4.77-8.51,5a6.39,6.39,0,0,1-6.58-3.77c-.92-2.17-.47-4.51.21-7.09.72-2.77,1.8-5.62,1.93-7.93a44,44,0,0,1,.82-7.56c.51-2,1.29-3.36,2.68-4.12l.2-.1c.16,2.58,1.43,5.19,3.67,5.76,2.46.64,6-1.46,7.5-3.18,1.76-.06,3.07-.18,4.41,1,1.93,1.66,1.39,5.92,3.34,8.12S90,83.59,90,84.58C89.78,87.86,81.91,88.47,77.62,93.66Z"/></svg>