<svg id="Layer_1" data-name="Layer 1" xmlns="http://www.w3.org/2000/svg" viewBox="0 0 100 100"><defs><style>.cls-1{fill:#333;}</style></defs><title>mongodb</title><path class="cls-1" d="M53.71,86.88c-2.6-1.22-3.36-6.86-3.49-12.15-.52,6.54-1.26,11.33-2,13L48,87.52c1.83,4.28,1.66,11.57,1.66,11.57l2.66.91s-.52-7.14.26-10.52a6.44,6.44,0,0,1,1.38-2.74l-.21.14Z"/><path class="cls-1" d="M57.28,84v0l-.13.12Z"/><path class="cls-1" d="M57.27,84c6.3-5.81,18.38-20.41,14.29-44.31C66.3,16.49,53.9,8.9,52.54,6A32.78,32.78,0,0,1,49.61.26V.43c.49,2.12.75,9.72.89,18.3C52.36,27.79,54.61,47.69,57.27,84Z"/><path class="cls-1" d="M53.91,86.74a33.59,33.59,0,0,0,3.23-2.64A11.6,11.6,0,0,0,53.91,86.74Z"/><path class="cls-1" d="M50.78,48.51a246,246,0,0,1-.56,26.23c.12,5.29.89,10.93,3.49,12.15h0l.21-.14a11.6,11.6,0,0,1,3.23-2.64l.13-.12c-2.66-36.29-4.92-56.19-6.77-65.25C50.71,31.21,50.67,45.75,50.78,48.51Z"/><path class="cls-1" d="M47.34,4.94c-3,2.34-18.44,15.26-19.68,41.56C26.46,71,45.39,85.65,48,87.52c-.66-1.55-1.59-2.71-2.89-3-2.42-2.8-.95-89.93,4.78-68.64L49.62.43A2.37,2.37,0,0,0,49.48,0C49.35,2.08,49.29,2.86,47.34,4.94Z"/><path class="cls-1" d="M50.22,74.73a92.14,92.14,0,0,1,.37-10l-.74-48.83c-5.73-21.29-7.2,65.83-4.78,68.64,1.3.26,2.22,1.42,2.89,3l.29.21C49,86.06,49.7,81.28,50.22,74.73Z"/><path class="cls-1" d="M50.51,18.73c-.14-8.58-.39-16.18-.89-18.3l.23,15.48C50.06,16.7,50.28,17.63,50.51,18.73Z"/><path class="cls-1" d="M50.22,74.73a246,246,0,0,0,.56-26.23c-.11-2.75-.07-17.3-.28-29.78-.22-1.1-.44-2-.65-2.82l.74,48.83A92.14,92.14,0,0,0,50.22,74.73Z"/></svg>