<svg id="Layer_1" data-name="Layer 1" xmlns="http://www.w3.org/2000/svg" viewBox="0 0 100 100"><defs><style>.cls-1{fill:#333;}</style></defs><title>node-js</title><path class="cls-1" d="M61.29,64.46c-9.7,0-11.83-2.44-12.54-7.26a1.05,1.05,0,0,0-1.05-.89H43a1,1,0,0,0-1.05,1.05c0,6.17,3.35,13.53,19.41,13.53,11.59,0,18.26-4.6,18.26-12.58h0c0-7.92-5.36-10-16.61-11.51s-12.54-2.28-12.54-4.94c0-2.2,1-5.14,9.41-5.14,7.52,0,10.3,1.63,11.45,6.71a1.06,1.06,0,0,0,1,.83h4.76a1,1,0,0,0,.77-.34,1.1,1.1,0,0,0,.28-.81c-.73-8.75-6.55-12.82-18.3-12.82-10.46,0-16.69,4.41-16.69,11.81,0,8,6.21,10.24,16.23,11.23,12,1.17,12.94,2.94,12.94,5.3C72.3,62.71,69,64.46,61.29,64.46Z"/><path class="cls-1" d="M39.09,87.62a24.11,24.11,0,0,1-5.54,2.52c-.6.2-1.49.56.34,1.59L46.13,99a7.7,7.7,0,0,0,7.7,0L90.48,77.82a7.76,7.76,0,0,0,3.85-6.69V28.84a7.72,7.72,0,0,0-3.85-6.69L53.83,1a8,8,0,0,0-7.7,0L9.52,22.14a7.74,7.74,0,0,0-3.85,6.69V71.11A7.72,7.72,0,0,0,9.52,77.8l9.6,5.54c4.64,2.3,6.31,2.3,8.43,2.3,6.89,0,10.85-4.17,10.85-11.43V32.43a1.06,1.06,0,0,0-1.07-1.05H32.7a1.05,1.05,0,0,0-1.07,1.05V74.18c0,3.23-3.33,6.43-8.79,3.71l-10-5.79a1.1,1.1,0,0,1-.58-1V28.84a1.16,1.16,0,0,1,.58-1L49.4,6.68a1.15,1.15,0,0,1,1.13,0L87.17,27.81a1.18,1.18,0,0,1,.58,1V71.13a1.17,1.17,0,0,1-.56,1L50.54,93.27a1.15,1.15,0,0,1-1.13,0L40,87.7A.9.9,0,0,0,39.09,87.62Z"/></svg>