<svg id="Layer_1" data-name="Layer 1" xmlns="http://www.w3.org/2000/svg" viewBox="0 0 100 100"><defs><style>.cls-1{fill:#333;}</style></defs><title>sql</title><circle class="cls-1" cx="50" cy="50" r="8.84"/><path class="cls-1" d="M50,0C25.85,0,6.25,6.42,6.25,14.29V85.71C6.25,93.58,25.85,100,50,100s43.75-6.42,43.75-14.29V14.29C93.75,6.42,74.15,0,50,0ZM76.17,58.15a27.36,27.36,0,0,1-6,10.45,1.33,1.33,0,0,1-1.64.25l-4.71-2.72A21.17,21.17,0,0,1,57.07,70v5.43a1.33,1.33,0,0,1-1,1.29,27.62,27.62,0,0,1-12.07,0,1.33,1.33,0,0,1-1-1.3V70a21.16,21.16,0,0,1-6.71-3.88l-4.71,2.72a1.33,1.33,0,0,1-1.64-.25,27.36,27.36,0,0,1-6-10.45,1.33,1.33,0,0,1,.6-1.55l4.71-2.72a21.38,21.38,0,0,1,0-7.76L24.43,43.4a1.33,1.33,0,0,1-.6-1.55,27.36,27.36,0,0,1,6-10.45,1.33,1.33,0,0,1,1.64-.25l4.71,2.72A21.17,21.17,0,0,1,42.93,30V24.56a1.33,1.33,0,0,1,1-1.29,27.62,27.62,0,0,1,12.07,0,1.33,1.33,0,0,1,1,1.3V30a21.16,21.16,0,0,1,6.71,3.88l4.71-2.72a1.33,1.33,0,0,1,1.64.25,27.36,27.36,0,0,1,6,10.45,1.33,1.33,0,0,1-.6,1.55l-4.71,2.72a21.38,21.38,0,0,1,0,7.76h.11l4.71,2.72A1.33,1.33,0,0,1,76.17,58.15Z"/></svg>