<svg id="Layer_1" data-name="Layer 1" xmlns="http://www.w3.org/2000/svg" viewBox="0 0 100 100"><defs><style>.cls-1{fill:none;}.cls-2{fill:#333;}</style></defs><title>wordpress</title><path class="cls-1" d="M50,2.3A47.7,47.7,0,1,0,97.7,50,47.75,47.75,0,0,0,50,2.3ZM7.12,50a42.75,42.75,0,0,1,3.71-17.46l20.46,56A42.85,42.85,0,0,1,7.12,50ZM50,92.9a42.94,42.94,0,0,1-12.12-1.75l12.86-37.4L63.93,89.88a3.21,3.21,0,0,0,.3.58A42.64,42.64,0,0,1,50,92.9Zm5.95-63c2.58-.14,4.9-.4,4.9-.4a1.77,1.77,0,0,0-.28-3.53s-7,.54-11.43.54c-4.21,0-11.29-.54-11.29-.54-2.3-.14-2.58,3.39-.26,3.53,0,0,2.18.26,4.5.4l6.67,18.31-9.4,28.15L23.73,29.88c2.58-.14,4.9-.4,4.9-.4a1.77,1.77,0,0,0-.28-3.53s-7,.54-11.43.54c-.81,0-1.75,0-2.76-.06A42.89,42.89,0,0,1,79,18.37c-.2,0-.38,0-.56,0a7.42,7.42,0,0,0-7.2,7.62c0,3.53,2,6.53,4.21,10.06A22.62,22.62,0,0,1,79,47.84c0,3.67-1.41,7.92-3.23,13.85L71.45,76Zm31.69-.46A42.93,42.93,0,0,1,71.55,87.08l13.1-37.88a40.29,40.29,0,0,0,3.27-15.36A33.41,33.41,0,0,0,87.64,29.42Z"/><path class="cls-2" d="M7.12,50A42.85,42.85,0,0,0,31.29,88.59l-20.46-56A42.75,42.75,0,0,0,7.12,50Z"/><path class="cls-2" d="M71.55,87.08A42.93,42.93,0,0,0,87.64,29.42a33.41,33.41,0,0,1,.28,4.42,40.29,40.29,0,0,1-3.27,15.36Z"/><path class="cls-2" d="M79,47.84A22.62,22.62,0,0,0,75.42,36c-2.18-3.53-4.21-6.53-4.21-10.06a7.42,7.42,0,0,1,7.2-7.62c.18,0,.36,0,.56,0a42.89,42.89,0,0,0-64.82,8.06c1,0,2,.06,2.76.06,4.48,0,11.43-.54,11.43-.54a1.77,1.77,0,0,1,.28,3.53s-2.32.26-4.9.4L39.35,76.33l9.4-28.15L42.08,29.88c-2.32-.14-4.5-.4-4.5-.4-2.32-.14-2-3.67.26-3.53,0,0,7.08.54,11.29.54,4.48,0,11.43-.54,11.43-.54a1.77,1.77,0,0,1,.28,3.53s-2.32.26-4.9.4L71.45,76l4.27-14.29C77.54,55.77,79,51.51,79,47.84Z"/><path class="cls-2" d="M50,0a50,50,0,1,0,50,50A50,50,0,0,0,50,0Zm0,97.7A47.7,47.7,0,1,1,97.7,50,47.76,47.76,0,0,1,50,97.7Z"/><path class="cls-2" d="M50.75,53.75,37.88,91.15a42.74,42.74,0,0,0,26.35-.69,3.21,3.21,0,0,1-.3-.58Z"/></svg>